<svg width="862" height="821" viewBox="0 0 862 821" fill="none" xmlns="http://www.w3.org/2000/svg">
<line x1="0.452637" y1="22.8547" x2="862" y2="22.8547" stroke="#E9E9E9"/>
<line x1="0.452637" y1="44.8547" x2="862" y2="44.8547" stroke="#E9E9E9"/>
<line x1="0.452637" y1="66.8547" x2="862" y2="66.8547" stroke="#E9E9E9"/>
<line x1="0.452637" y1="88.8547" x2="862" y2="88.8547" stroke="#E9E9E9"/>
<line x1="0.452637" y1="110.855" x2="862" y2="110.855" stroke="#E9E9E9"/>
<line x1="0.452637" y1="132.855" x2="862" y2="132.855" stroke="#E9E9E9"/>
<line x1="0.452637" y1="154.855" x2="862" y2="154.855" stroke="#E9E9E9"/>
<line x1="0.452637" y1="176.855" x2="862" y2="176.855" stroke="#E9E9E9"/>
<line x1="0.452637" y1="198.855" x2="862" y2="198.855" stroke="#E9E9E9"/>
<line x1="0.452637" y1="220.855" x2="862" y2="220.855" stroke="#E9E9E9"/>
<line x1="0.452637" y1="242.855" x2="862" y2="242.855" stroke="#E9E9E9"/>
<line x1="0.452637" y1="264.855" x2="862" y2="264.855" stroke="#E9E9E9"/>
<line x1="0.452637" y1="286.855" x2="862" y2="286.855" stroke="#E9E9E9"/>
<line x1="0.452637" y1="308.855" x2="862" y2="308.855" stroke="#E9E9E9"/>
<line x1="0.452637" y1="330.855" x2="862" y2="330.855" stroke="#E9E9E9"/>
<line x1="0.452637" y1="352.855" x2="862" y2="352.855" stroke="#E9E9E9"/>
<line x1="0.452637" y1="374.855" x2="862" y2="374.855" stroke="#E9E9E9"/>
<line x1="0.452637" y1="396.855" x2="862" y2="396.855" stroke="#E9E9E9"/>
<line x1="0.452637" y1="418.855" x2="862" y2="418.855" stroke="#E9E9E9"/>
<line x1="0.452637" y1="440.855" x2="862" y2="440.855" stroke="#E9E9E9"/>
<line x1="0.452637" y1="462.855" x2="862" y2="462.855" stroke="#E9E9E9"/>
<line x1="0.452637" y1="484.855" x2="862" y2="484.855" stroke="#E9E9E9"/>
<line x1="0.452637" y1="506.855" x2="862" y2="506.855" stroke="#E9E9E9"/>
<line x1="0.452637" y1="528.855" x2="862" y2="528.855" stroke="#E9E9E9"/>
<line x1="0.452637" y1="550.855" x2="862" y2="550.855" stroke="#E9E9E9"/>
<line x1="0.452637" y1="572.855" x2="862" y2="572.855" stroke="#E9E9E9"/>
<line x1="0.452637" y1="594.855" x2="862" y2="594.855" stroke="#E9E9E9"/>
<line x1="0.452637" y1="616.855" x2="862" y2="616.855" stroke="#E9E9E9"/>
<line x1="0.452637" y1="638.855" x2="862" y2="638.855" stroke="#E9E9E9"/>
<line x1="0.452637" y1="660.855" x2="862" y2="660.855" stroke="#E9E9E9"/>
<line x1="0.452637" y1="682.855" x2="862" y2="682.855" stroke="#E9E9E9"/>
<line x1="0.452637" y1="704.855" x2="862" y2="704.855" stroke="#E9E9E9"/>
<line x1="0.452637" y1="726.855" x2="862" y2="726.855" stroke="#E9E9E9"/>
<line x1="791.613" y1="0.452881" x2="791.613" y2="820.559" stroke="#E9E9E9"/>
<line x1="769.613" y1="0.452881" x2="769.613" y2="820.559" stroke="#E9E9E9"/>
<line x1="747.613" y1="0.452881" x2="747.613" y2="820.559" stroke="#E9E9E9"/>
<line x1="725.613" y1="0.452881" x2="725.613" y2="820.559" stroke="#E9E9E9"/>
<line x1="703.613" y1="0.452881" x2="703.613" y2="820.559" stroke="#E9E9E9"/>
<line x1="681.613" y1="0.452881" x2="681.613" y2="820.559" stroke="#E9E9E9"/>
<line x1="659.613" y1="0.452881" x2="659.613" y2="820.559" stroke="#E9E9E9"/>
<line x1="637.613" y1="0.452881" x2="637.613" y2="820.559" stroke="#E9E9E9"/>
<line x1="615.613" y1="0.452881" x2="615.613" y2="820.559" stroke="#E9E9E9"/>
<line x1="593.613" y1="0.452881" x2="593.613" y2="820.559" stroke="#E9E9E9"/>
<line x1="571.613" y1="0.452881" x2="571.613" y2="820.559" stroke="#E9E9E9"/>
<line x1="549.613" y1="0.452881" x2="549.613" y2="820.559" stroke="#E9E9E9"/>
<line x1="527.613" y1="0.452881" x2="527.613" y2="820.559" stroke="#E9E9E9"/>
<line x1="505.613" y1="0.452881" x2="505.613" y2="820.559" stroke="#E9E9E9"/>
<line x1="483.613" y1="0.452881" x2="483.613" y2="820.559" stroke="#E9E9E9"/>
<line x1="461.613" y1="0.452881" x2="461.613" y2="820.559" stroke="#E9E9E9"/>
<line x1="439.613" y1="0.452881" x2="439.613" y2="820.559" stroke="#E9E9E9"/>
<line x1="417.613" y1="0.452881" x2="417.613" y2="820.559" stroke="#E9E9E9"/>
<line x1="395.613" y1="0.452881" x2="395.613" y2="820.559" stroke="#E9E9E9"/>
<line x1="373.613" y1="0.452881" x2="373.613" y2="820.559" stroke="#E9E9E9"/>
<line x1="351.613" y1="0.452881" x2="351.613" y2="820.559" stroke="#E9E9E9"/>
<line x1="329.613" y1="0.452881" x2="329.613" y2="820.559" stroke="#E9E9E9"/>
<line x1="307.613" y1="0.452881" x2="307.613" y2="820.559" stroke="#E9E9E9"/>
<line x1="285.613" y1="0.452881" x2="285.613" y2="820.559" stroke="#E9E9E9"/>
<line x1="263.613" y1="0.452881" x2="263.613" y2="820.559" stroke="#E9E9E9"/>
<line x1="241.613" y1="0.452881" x2="241.613" y2="820.559" stroke="#E9E9E9"/>
<line x1="219.613" y1="0.452881" x2="219.613" y2="820.559" stroke="#E9E9E9"/>
<line x1="197.613" y1="0.452881" x2="197.613" y2="820.559" stroke="#E9E9E9"/>
<line x1="175.613" y1="0.452881" x2="175.613" y2="820.559" stroke="#E9E9E9"/>
<line x1="153.613" y1="0.452881" x2="153.613" y2="820.559" stroke="#E9E9E9"/>
<line x1="131.613" y1="0.452881" x2="131.613" y2="820.559" stroke="#E9E9E9"/>
</svg>
